<svg width="55" height="55" viewBox="0 0 55 55" fill="none" xmlns="http://www.w3.org/2000/svg">
<path d="M12.9617 46.931C12.6326 47.2172 12.2288 47.4035 11.7976 47.4681C11.3664 47.5327 10.9257 47.473 10.5272 47.2959C10.1287 47.1188 9.78909 46.8317 9.54809 46.4683C9.3071 46.1049 9.17478 45.6803 9.16667 45.2444V40.1042C7.95109 40.1042 6.7853 39.6213 5.92576 38.7617C5.06622 37.9022 4.58333 36.7364 4.58333 35.5208V19.4792C4.58333 18.2636 5.06622 17.0978 5.92576 16.2383C6.7853 15.3787 7.95109 14.8958 9.16667 14.8958H34.375C35.5906 14.8958 36.7564 15.3787 37.6159 16.2383C38.4754 17.0978 38.9583 18.2636 38.9583 19.4792V35.5208C38.9583 36.7364 38.4754 37.9022 37.6159 38.7617C36.7564 39.6213 35.5906 40.1042 34.375 40.1042H22.9235L12.9617 46.931ZM14.8958 39.8429C15.1046 39.8413 15.3096 39.7869 15.4917 39.6848L20.8885 35.931C21.2726 35.6639 21.7293 35.5208 22.1971 35.5208H32.0833C32.6911 35.5208 33.274 35.2794 33.7038 34.8496C34.1336 34.4198 34.375 33.837 34.375 33.2292V21.7708C34.375 21.163 34.1336 20.5802 33.7038 20.1504C33.274 19.7206 32.6911 19.4792 32.0833 19.4792H11.4583C10.8505 19.4792 10.2676 19.7206 9.83788 20.1504C9.40811 20.5802 9.16667 21.163 9.16667 21.7708V33.2292C9.16667 34.4667 10.1498 35.4796 11.4583 35.5208C12.3979 35.5575 13.0785 35.711 13.3925 36.0387C13.6858 36.3458 13.7019 36.8638 13.75 37.8492C13.7569 37.9935 13.7569 38.2548 13.75 38.6971C13.75 39.001 13.8707 39.2924 14.0856 39.5073C14.3005 39.7222 14.5919 39.8429 14.8958 39.8429ZM41.25 28.6825C41.2425 28.9651 41.2425 29.2478 41.25 29.5304V28.6825ZM41.25 28.6825C41.2958 27.6971 41.3142 27.1792 41.6075 26.8721C41.9215 26.5444 42.6021 26.3908 43.5417 26.3542C44.8502 26.3129 45.8333 25.3 45.8333 24.0625V12.6042C45.8333 11.9964 45.5919 11.4135 45.1621 10.9837C44.7323 10.5539 44.1495 10.3125 43.5417 10.3125H22.9167C22.3089 10.3125 21.726 10.5539 21.2962 10.9837C20.8664 11.4135 20.625 11.9964 20.625 12.6042H16.0417V10.3125C16.0417 9.09692 16.5245 7.93114 17.3841 7.07159C18.2436 6.21205 19.4094 5.72917 20.625 5.72917H45.8333C47.0489 5.72917 48.2147 6.21205 49.0742 7.07159C49.9338 7.93114 50.4167 9.09692 50.4167 10.3125V26.3542C50.4167 27.5697 49.9338 28.7355 49.0742 29.5951C48.2147 30.4546 47.0489 30.9375 45.8333 30.9375V36.0777C45.8252 36.5137 45.6929 36.9383 45.4519 37.3016C45.2109 37.665 44.8712 37.9521 44.4728 38.1292C44.0743 38.3063 43.6336 38.366 43.2024 38.3014C42.7712 38.2368 42.3674 38.0505 42.0383 37.7644L41.25 37.2235V28.6825Z" fill="white"/>
</svg>
